<?xml version="1.0" encoding="UTF-8" standalone="no"?>
<svg
   xmlns:dc="http://purl.org/dc/elements/1.1/"
   xmlns:cc="http://creativecommons.org/ns#"
   xmlns:rdf="http://www.w3.org/1999/02/22-rdf-syntax-ns#"
   xmlns:svg="http://www.w3.org/2000/svg"
   xmlns="http://www.w3.org/2000/svg"
   xmlns:xlink="http://www.w3.org/1999/xlink"
   xmlns:sodipodi="http://sodipodi.sourceforge.net/DTD/sodipodi-0.dtd"
   xmlns:inkscape="http://www.inkscape.org/namespaces/inkscape"
   sodipodi:docname="favicon.svg"
   inkscape:version="1.0 (4035a4fb49, 2020-05-01)"
   width="192"
   height="192"
   viewBox="0 0 192 192"
   version="1.1"
   id="svg8">
  <defs
     id="defs2">
    <linearGradient
       inkscape:collect="always"
       id="linearGradient1631">
      <stop
         style="stop-color:#ffffff;stop-opacity:0.1"
         offset="0"
         id="stop1627" />
      <stop
         style="stop-color:#ffffff;stop-opacity:0"
         offset="1"
         id="stop1629" />
    </linearGradient>
    <filter
       style="color-interpolation-filters:sRGB;"
       inkscape:label="Drop Shadow"
       id="filter1620">
      <feFlood
         flood-opacity="0.2"
         flood-color="rgb(33,33,33)"
         result="flood"
         id="feFlood1610" />
      <feComposite
         in="flood"
         in2="SourceGraphic"
         operator="in"
         result="composite1"
         id="feComposite1612" />
      <feGaussianBlur
         in="composite1"
         stdDeviation="4"
         result="blur"
         id="feGaussianBlur1614" />
      <feOffset
         dx="4"
         dy="4"
         result="offset"
         id="feOffset1616" />
      <feComposite
         in="offset"
         in2="offset"
         operator="atop"
         result="composite2"
         id="feComposite1618" />
    </filter>
    <radialGradient
       inkscape:collect="always"
       xlink:href="#linearGradient1631"
       id="radialGradient1633"
       cx="0"
       cy="0"
       fx="0"
       fy="0"
       r="96"
       gradientUnits="userSpaceOnUse"
       gradientTransform="matrix(0,2,-2,0,0,0)" />
    <linearGradient
       gradientUnits="userSpaceOnUse"
       y2="171.63574"
       x2="344"
       y1="171.63574"
       x1="20"
       id="linearGradient1743"
       xlink:href="#linearGradient1631"
       inkscape:collect="always" />
    <filter
       id="filter1798"
       inkscape:label="Drop Shadow"
       style="color-interpolation-filters:sRGB;">
      <feFlood
         id="feFlood1788"
         result="flood"
         flood-color="rgb(33,33,33)"
         flood-opacity="0.2" />
      <feComposite
         id="feComposite1790"
         result="composite1"
         operator="in"
         in2="SourceGraphic"
         in="flood" />
      <feGaussianBlur
         id="feGaussianBlur1792"
         result="blur"
         stdDeviation="4"
         in="composite1" />
      <feOffset
         id="feOffset1794"
         result="offset"
         dy="4"
         dx="4" />
      <feComposite
         id="feComposite1796"
         result="composite2"
         operator="atop"
         in2="offset"
         in="offset" />
    </filter>
  </defs>
  <sodipodi:namedview
     id="base"
     pagecolor="#ffffff"
     bordercolor="#666666"
     borderopacity="1.0"
     inkscape:pageopacity="0.0"
     inkscape:pageshadow="2"
     inkscape:zoom="4.3225819"
     inkscape:cx="133.97404"
     inkscape:cy="96.539382"
     inkscape:document-units="px"
     inkscape:current-layer="layer2"
     inkscape:document-rotation="0"
     showgrid="false"
     units="px"
     showguides="false"
     inkscape:window-width="1920"
     inkscape:window-height="1012"
     inkscape:window-x="0"
     inkscape:window-y="0"
     inkscape:window-maximized="1"
     inkscape:snap-bbox="true"
     inkscape:bbox-paths="true"
     inkscape:bbox-nodes="true"
     inkscape:snap-bbox-edge-midpoints="true"
     inkscape:snap-bbox-midpoints="true" />
  <metadata
     id="metadata5">
    <rdf:RDF>
      <cc:Work
         rdf:about="">
        <dc:format>image/svg+xml</dc:format>
        <dc:type
           rdf:resource="http://purl.org/dc/dcmitype/StillImage" />
        <dc:title></dc:title>
      </cc:Work>
    </rdf:RDF>
  </metadata>
  <g
     inkscape:label="background"
     inkscape:groupmode="layer"
     id="layer1"
     style="display:inline"
     sodipodi:insensitive="true">
    <rect
       style="fill:#2196f3;fill-opacity:1;stroke:none;stroke-width:15.9987"
       id="rect849"
       width="192"
       height="192"
       x="0"
       y="0"
       rx="12"
       ry="12" />
  </g>
  <g
     sodipodi:insensitive="true"
     inkscape:groupmode="layer"
     id="layer4"
     inkscape:label="shadow"
     style="display:inline">
    <path
       id="path854"
       style="fill:#bdbdbd;fill-opacity:1;stroke:none;stroke-width:15.9986;filter:url(#filter1798)"
       d="m 83.819689,40.72728 a 37.968465,43.022703 0 0 0 -26.08789,11.783913 37.968465,43.022703 0 0 0 -37.7318,43.021577 37.968465,43.022703 0 0 0 37.96795,43.02325 37.968465,43.022703 0 0 0 7.16211,-0.77255 37.968465,43.022703 0 0 0 27.60938,13.48925 37.968465,43.022703 0 0 0 26.523081,-12.23765 37.968465,43.022703 0 0 0 14.76953,3.38876 A 37.968465,43.022703 0 0 0 172,99.400565 37.968465,43.022703 0 0 0 138.37216,56.662383 37.968465,43.022703 0 0 0 109.55842,41.655014 a 37.968465,43.022703 0 0 0 -11.723191,2.10174 37.968465,43.022703 0 0 0 -13.99698,-3.029474 37.968465,43.022703 0 0 0 -0.0186,0 z" />
  </g>
  <g
     sodipodi:insensitive="true"
     inkscape:groupmode="layer"
     id="layer2"
     inkscape:label="foreground">
    <path
       d="m 83.819689,40.72728 a 37.968465,43.022703 0 0 0 -26.08789,11.783913 37.968465,43.022703 0 0 0 -37.7318,43.021577 37.968465,43.022703 0 0 0 37.96795,43.02325 37.968465,43.022703 0 0 0 7.16211,-0.77255 37.968465,43.022703 0 0 0 27.60938,13.48925 37.968465,43.022703 0 0 0 26.523081,-12.23765 37.968465,43.022703 0 0 0 14.76953,3.38876 A 37.968465,43.022703 0 0 0 172,99.400565 37.968465,43.022703 0 0 0 138.37216,56.662383 37.968465,43.022703 0 0 0 109.55842,41.655014 a 37.968465,43.022703 0 0 0 -11.723191,2.10174 37.968465,43.022703 0 0 0 -13.99698,-3.029474 37.968465,43.022703 0 0 0 -0.0186,0 z"
       style="fill:#bdbdbd;fill-opacity:1;stroke:none;stroke-width:15.9986"
       id="path1786" />
  </g>
  <g
     sodipodi:insensitive="true"
     id="g912"
     inkscape:groupmode="layer"
     inkscape:label="tinted edge"
     style="display:inline;mix-blend-mode:normal">
    <path
       id="rect910"
       style="opacity:0.2;fill:#ffffff;fill-opacity:1;stroke:none;stroke-width:15.9987"
       d="M 12,0 C 5.352,0 0,5.352 0,12 v 1 C 0,6.352 5.352,1 12,1 h 168 c 6.648,0 12,5.352 12,12 V 12 C 192,5.352 186.648,0 180,0 Z" />
    <path
       d="M 83.820312,40.726562 A 37.968465,43.022703 0 0 0 57.732422,52.511719 37.968465,43.022703 0 0 0 20,95.533203 a 37.968465,43.022703 0 0 0 0.0039,0.470703 37.968465,43.022703 0 0 1 37.728516,-42.492187 37.968465,43.022703 0 0 1 26.08789,-11.785157 37.968465,43.022703 0 0 1 0.01758,0 37.968465,43.022703 0 0 1 13.998047,3.029297 37.968465,43.022703 0 0 1 11.722652,-2.101562 37.968465,43.022703 0 0 1 28.81446,15.007812 37.968465,43.022703 0 0 1 33.62304,42.169922 37.968465,43.022703 0 0 0 0.004,-0.43164 37.968465,43.022703 0 0 0 -33.62695,-42.738282 37.968465,43.022703 0 0 0 -28.81446,-15.007812 37.968465,43.022703 0 0 0 -11.722652,2.101562 37.968465,43.022703 0 0 0 -13.998047,-3.029297 37.968465,43.022703 0 0 0 -0.01758,0 z"
       style="opacity:0.2;fill:#ffffff;fill-opacity:1;stroke:none;stroke-width:15.9986"
       id="path1745" />
  </g>
  <g
     sodipodi:insensitive="true"
     inkscape:groupmode="layer"
     id="layer3"
     inkscape:label="shaded edge">
    <path
       id="rect849-2"
       style="opacity:0.2;fill:#19237e;fill-opacity:1;stroke:none;stroke-width:15.9987"
       d="m 0,179 v 1 c 0,6.648 5.352,12 12,12 h 168 c 6.648,0 12,-5.352 12,-12 v -1 c 0,6.648 -5.352,12 -12,12 H 12 C 5.352,191 0,185.648 0,179 Z" />
    <path
       d="M 20.003906,95.003906 A 37.968465,43.022703 0 0 0 20,95.533203 a 37.968465,43.022703 0 0 0 37.96875,43.023437 37.968465,43.022703 0 0 0 7.162109,-0.77344 37.968465,43.022703 0 0 0 27.609375,13.49024 37.968465,43.022703 0 0 0 26.521486,-12.23828 37.968465,43.022703 0 0 0 14.76953,3.38867 A 37.968465,43.022703 0 0 0 172,99.400391 37.968465,43.022703 0 0 0 171.99609,98.960938 37.968465,43.022703 0 0 1 134.03125,141.42383 37.968465,43.022703 0 0 1 119.26172,138.03516 37.968465,43.022703 0 0 1 92.740234,150.27148 37.968465,43.022703 0 0 1 65.130859,136.7832 37.968465,43.022703 0 0 1 57.96875,137.55664 37.968465,43.022703 0 0 1 20.003906,95.003906 Z"
       style="opacity:0.1;fill:#212121;fill-opacity:1;stroke:none;stroke-width:15.9986"
       id="path1751" />
  </g>
  <g
     sodipodi:insensitive="true"
     inkscape:groupmode="layer"
     id="layer5"
     inkscape:label="finish"
     style="display:inline">
    <rect
       ry="12"
       rx="12"
       y="0"
       x="0"
       height="192"
       width="192"
       id="rect1623"
       style="display:inline;fill:url(#radialGradient1633);fill-opacity:1;stroke:none;stroke-width:15.9987" />
  </g>
</svg>
