<?xml version="1.0" encoding="UTF-8"?>
<svg width="192" height="192" version="1.1" viewBox="0 0 192 192" xmlns="http://www.w3.org/2000/svg" xmlns:cc="http://creativecommons.org/ns#" xmlns:dc="http://purl.org/dc/elements/1.1/" xmlns:rdf="http://www.w3.org/1999/02/22-rdf-syntax-ns#" xmlns:xlink="http://www.w3.org/1999/xlink">
 <defs>
  <filter id="filter1620" color-interpolation-filters="sRGB">
   <feFlood flood-color="rgb(33,33,33)" flood-opacity=".2" result="flood"/>
   <feComposite in="flood" in2="SourceGraphic" operator="in" result="composite1"/>
   <feGaussianBlur in="composite1" result="blur" stdDeviation="4"/>
   <feOffset dx="4" dy="4" result="offset"/>
   <feComposite in="offset" in2="offset" operator="atop" result="composite2"/>
  </filter>
  <radialGradient id="radialGradient1633" cx="0" cy="0" r="96" gradientTransform="matrix(0,2,-2,0,0,0)" gradientUnits="userSpaceOnUse">
   <stop stop-color="#fff" stop-opacity=".1" offset="0"/>
   <stop stop-color="#fff" stop-opacity="0" offset="1"/>
  </radialGradient>
 </defs>
 <metadata>
  <rdf:RDF>
   <cc:Work rdf:about="">
    <dc:format>image/svg+xml</dc:format>
    <dc:type rdf:resource="http://purl.org/dc/dcmitype/StillImage"/>
    <dc:title/>
   </cc:Work>
  </rdf:RDF>
 </metadata>
 <g>
  <rect width="192" height="192" rx="12" ry="12" fill="#2196f3"/>
 </g>
 <g>
  <path d="m81.896 32a43.963 49.816 0 0 0-30.207 13.645 43.963 49.816 0 0 0-43.689 49.814 43.963 49.816 0 0 0 43.963 49.816 43.963 49.816 0 0 0 8.293-0.89453 43.963 49.816 0 0 0 31.969 15.619 43.963 49.816 0 0 0 30.711-14.17 43.963 49.816 0 0 0 17.102 3.9238 43.963 49.816 0 0 0 43.963-49.816 43.963 49.816 0 0 0-38.938-49.486 43.963 49.816 0 0 0-33.363-17.377 43.963 49.816 0 0 0-13.574 2.4336 43.963 49.816 0 0 0-16.207-3.5078 43.963 49.816 0 0 0-0.02148 0z" fill="#bdbdbd" filter="url(#filter1620)"/>
 </g>
 <path d="m81.896 32a43.963 49.816 0 0 0-30.207 13.645 43.963 49.816 0 0 0-43.689 49.814 43.963 49.816 0 0 0 43.963 49.816 43.963 49.816 0 0 0 8.293-0.89453 43.963 49.816 0 0 0 31.969 15.619 43.963 49.816 0 0 0 30.711-14.17 43.963 49.816 0 0 0 17.102 3.9238 43.963 49.816 0 0 0 43.963-49.816 43.963 49.816 0 0 0-38.938-49.486 43.963 49.816 0 0 0-33.363-17.377 43.963 49.816 0 0 0-13.574 2.4336 43.963 49.816 0 0 0-16.207-3.5078 43.963 49.816 0 0 0-0.02148 0z" fill="#bdbdbd"/>
 <g fill="#fff" style="mix-blend-mode:normal">
  <path d="m12 0c-6.648 0-12 5.352-12 12v1c0-6.648 5.352-12 12-12h168c6.648 0 12 5.352 12 12v-1c0-6.648-5.352-12-12-12z" opacity=".2"/>
  <path d="m81.896 32a43.963 49.816 0 0 0-30.207 13.645 43.963 49.816 0 0 0-43.689 49.814 43.963 49.816 0 0 0 0.0019531 0.45117 43.963 49.816 0 0 1 43.687-49.266 43.963 49.816 0 0 1 30.207-13.645 43.963 49.816 0 0 1 0.021485 0 43.963 49.816 0 0 1 16.207 3.5078 43.963 49.816 0 0 1 13.574-2.4336 43.963 49.816 0 0 1 33.363 17.377 43.963 49.816 0 0 1 38.934 48.998 43.963 49.816 0 0 0 0.00391-0.51172 43.963 49.816 0 0 0-38.938-49.486 43.963 49.816 0 0 0-33.363-17.377 43.963 49.816 0 0 0-13.574 2.4336 43.963 49.816 0 0 0-16.207-3.5078 43.963 49.816 0 0 0-0.02148 0z" opacity=".2"/>
 </g>
 <g>
  <path d="m0 179v1c0 6.648 5.352 12 12 12h168c6.648 0 12-5.352 12-12v-1c0 6.648-5.352 12-12 12h-168c-6.648 0-12-5.352-12-12z" fill="#19237e" opacity=".2"/>
  <path d="m8.002 94.91a43.963 49.816 0 0 0-0.0019531 0.54883 43.963 49.816 0 0 0 43.963 49.816 43.963 49.816 0 0 0 8.293-0.89453 43.963 49.816 0 0 0 31.969 15.619 43.963 49.816 0 0 0 30.711-14.17 43.963 49.816 0 0 0 17.102 3.9238 43.963 49.816 0 0 0 43.963-49.816 43.963 49.816 0 0 0-0.00391-0.48828 43.963 49.816 0 0 1-43.959 49.305 43.963 49.816 0 0 1-17.102-3.9238 43.963 49.816 0 0 1-30.711 14.17 43.963 49.816 0 0 1-31.969-15.619 43.963 49.816 0 0 1-8.293 0.89453 43.963 49.816 0 0 1-43.961-49.365z" fill="#212121" opacity=".1"/>
 </g>
 <g>
  <rect width="192" height="192" rx="12" ry="12" fill="url(#radialGradient1633)"/>
 </g>
</svg>
